<svg width="18" height="24" viewBox="0 0 18 24" fill="none" xmlns="http://www.w3.org/2000/svg">
<path d="M6.74999 2.66699H11.0812C11.6797 2.66699 12.1641 2.9354 12.1641 3.26699C12.1641 3.59859 11.6797 3.86699 11.0812 3.86699H6.74999C6.15157 3.86699 5.66718 3.59859 5.66718 3.26699C5.66718 2.9354 6.15157 2.66699 6.74999 2.66699Z" fill="#001833"/>
<path d="M3.40076 0H14.6008C16.1445 0 17.4008 1.07681 17.4008 2.4V21.6C17.4008 22.9232 16.1445 24 14.6008 24H3.40076C1.85704 24 0.600756 22.9232 0.600756 21.6V2.4C0.600756 1.07681 1.85704 0 3.40076 0ZM2.00076 21.6C2.00076 22.2628 2.62748 22.8 3.40076 22.8H14.6008C15.374 22.8 16.0008 22.2628 16.0008 21.6V2.4C16.0008 1.73719 15.374 1.2 14.6008 1.2H3.40076C2.62748 1.2 2.00076 1.73719 2.00076 2.4V21.6Z" fill="#001833"/>
<path d="M9.00106 20.6666C8.22786 20.6666 7.60106 20.1293 7.60106 19.4666C7.60106 18.8039 8.22786 18.2666 9.00106 18.2666C9.77426 18.2666 10.4011 18.8039 10.4011 19.4666C10.4011 20.1293 9.77426 20.6666 9.00106 20.6666Z" fill="#001833"/>
</svg>
